<svg version="1.1" width="1250.000000" height="1250.000000" viewBox="0.000000 0.000000 937.500000 937.500000" xmlns="http://www.w3.org/2000/svg" xmlns:xlink="http://www.w3.org/1999/xlink" overflow="hidden"><style>
.MsftOfcThm_Background1_Fill {
 fill:#FFFFFF; 
}
</style>
<g id="surface1"><path d=" M 781.250000 165.531250 L 781.250000 78.125000 C 781.195312 35.000000 746.250000 0.054688 703.125000 0.000000 L 78.125000 0.000000 C 35.000000 0.054688 0.054688 35.000000 0.000000 78.125000 L 0.000000 421.875000 C 0.121094 461.777344 30.367188 495.148438 70.062500 499.195312 L 128.796875 651.660156 C 144.312500 691.917969 189.523438 711.972656 229.785156 696.476562 L 596.562500 555.187500 C 571.218750 621.386719 578.429688 695.648438 616.023438 755.738281 L 625.000000 770.093750 L 625.000000 921.875000 C 625.000000 930.507812 631.992188 937.500000 640.625000 937.500000 L 921.875000 937.500000 C 930.507812 937.500000 937.500000 930.507812 937.500000 921.875000 L 937.500000 406.113281 C 937.351562 352.078125 915.839844 300.304688 877.636719 262.089844 Z M 781.250000 258.976562 L 828.671875 382.078125 C 837.964844 406.242188 825.921875 433.355469 801.761719 442.656250 L 774.656250 453.125000 C 778.984375 443.273438 781.226562 432.625000 781.250000 421.875000 Z M 31.250000 421.875000 L 31.250000 78.125000 C 31.250000 52.242188 52.242188 31.250000 78.125000 31.250000 L 703.125000 31.250000 C 729.007812 31.250000 750.000000 52.242188 750.000000 78.125000 L 750.000000 177.437500 L 749.863281 177.437500 L 750.000000 177.792969 L 750.000000 421.875000 C 749.878906 424.601562 749.523438 427.304688 748.937500 429.968750 L 605.812500 286.828125 C 573.640625 255.398438 522.351562 255.156250 489.890625 286.257812 C 457.421875 317.378906 455.472656 368.628906 485.500000 402.105469 L 546.515625 468.750000 L 78.125000 468.750000 C 52.242188 468.750000 31.250000 447.757812 31.250000 421.875000 Z M 231.421875 500.000000 L 120.312500 542.777344 L 103.875000 500.000000 Z M 218.546875 667.308594 C 194.390625 676.621094 167.261719 664.578125 157.953125 640.421875 L 131.593750 571.875000 L 318.109375 500.000000 L 318.109375 499.906250 L 575.156250 499.906250 L 595.464844 522.046875 Z M 906.250000 906.250000 L 656.250000 906.250000 L 656.250000 781.250000 L 906.250000 781.250000 Z M 906.250000 750.000000 L 649.296875 750.000000 L 642.519531 739.171875 C 604.421875 678.289062 602.906250 601.390625 638.562500 539.062500 C 641.937500 533.164062 641.109375 525.757812 636.515625 520.750000 L 508.472656 381.062500 C 489.378906 360.164062 490.453125 327.855469 510.894531 308.281250 C 531.343750 288.703125 563.667969 289.023438 583.714844 308.992188 L 832.703125 557.921875 L 854.796875 535.828125 L 796.984375 478.015625 L 813.015625 471.765625 C 853.242188 456.246094 873.289062 411.074219 857.812500 370.824219 L 804.925781 233.496094 L 855.542969 284.218750 C 887.886719 316.554688 906.125000 360.375000 906.250000 406.113281 Z" class="MsftOfcThm_Background1_Fill" stroke="none" stroke-width="1.000000" stroke-linecap="butt" fill="#FFFFFF" fill-rule="nonzero" fill-opacity="1.000000"/><path d=" M 178.125000 218.750000 C 200.562500 218.750000 218.750000 200.562500 218.750000 178.125000 L 218.750000 103.125000 C 218.750000 80.687500 200.562500 62.500000 178.125000 62.500000 L 103.125000 62.500000 C 80.687500 62.500000 62.500000 80.687500 62.500000 103.125000 L 62.500000 178.125000 C 62.500000 200.562500 80.687500 218.750000 103.125000 218.750000 Z M 93.750000 178.125000 L 93.750000 156.250000 L 125.000000 156.250000 L 125.000000 125.000000 L 93.750000 125.000000 L 93.750000 103.125000 C 93.750000 97.949219 97.949219 93.750000 103.125000 93.750000 L 178.125000 93.750000 C 183.300781 93.750000 187.500000 97.949219 187.500000 103.125000 L 187.500000 125.000000 L 156.250000 125.000000 L 156.250000 156.250000 L 187.500000 156.250000 L 187.500000 178.125000 C 187.500000 183.300781 183.300781 187.500000 178.125000 187.500000 L 103.125000 187.500000 C 97.949219 187.500000 93.750000 183.300781 93.750000 178.125000 Z" class="MsftOfcThm_Background1_Fill" stroke="none" stroke-width="1.000000" stroke-linecap="butt" fill="#FFFFFF" fill-rule="nonzero" fill-opacity="1.000000"/><path d=" M 78.125000 265.625000 L 140.625000 265.625000 L 140.625000 296.875000 L 78.125000 296.875000 Z" class="MsftOfcThm_Background1_Fill" stroke="none" stroke-width="1.000000" stroke-linecap="butt" fill="#FFFFFF" fill-rule="nonzero" fill-opacity="1.000000"/><path d=" M 78.125000 359.375000 L 140.625000 359.375000 L 140.625000 390.625000 L 78.125000 390.625000 Z" class="MsftOfcThm_Background1_Fill" stroke="none" stroke-width="1.000000" stroke-linecap="butt" fill="#FFFFFF" fill-rule="nonzero" fill-opacity="1.000000"/><path d=" M 359.375000 359.375000 L 421.875000 359.375000 L 421.875000 390.625000 L 359.375000 390.625000 Z" class="MsftOfcThm_Background1_Fill" stroke="none" stroke-width="1.000000" stroke-linecap="butt" fill="#FFFFFF" fill-rule="nonzero" fill-opacity="1.000000"/><path d=" M 171.875000 265.625000 L 234.375000 265.625000 L 234.375000 296.875000 L 171.875000 296.875000 Z" class="MsftOfcThm_Background1_Fill" stroke="none" stroke-width="1.000000" stroke-linecap="butt" fill="#FFFFFF" fill-rule="nonzero" fill-opacity="1.000000"/><path d=" M 265.625000 265.625000 L 328.125000 265.625000 L 328.125000 296.875000 L 265.625000 296.875000 Z" class="MsftOfcThm_Background1_Fill" stroke="none" stroke-width="1.000000" stroke-linecap="butt" fill="#FFFFFF" fill-rule="nonzero" fill-opacity="1.000000"/><path d=" M 359.375000 265.625000 L 421.875000 265.625000 L 421.875000 296.875000 L 359.375000 296.875000 Z" class="MsftOfcThm_Background1_Fill" stroke="none" stroke-width="1.000000" stroke-linecap="butt" fill="#FFFFFF" fill-rule="nonzero" fill-opacity="1.000000"/><path d=" M 656.250000 78.125000 L 687.500000 78.125000 L 687.500000 125.000000 L 656.250000 125.000000 Z" class="MsftOfcThm_Background1_Fill" stroke="none" stroke-width="1.000000" stroke-linecap="butt" fill="#FFFFFF" fill-rule="nonzero" fill-opacity="1.000000"/><path d=" M 593.750000 78.125000 L 625.000000 78.125000 L 625.000000 125.000000 L 593.750000 125.000000 Z" class="MsftOfcThm_Background1_Fill" stroke="none" stroke-width="1.000000" stroke-linecap="butt" fill="#FFFFFF" fill-rule="nonzero" fill-opacity="1.000000"/><path d=" M 531.250000 78.125000 L 562.500000 78.125000 L 562.500000 125.000000 L 531.250000 125.000000 Z" class="MsftOfcThm_Background1_Fill" stroke="none" stroke-width="1.000000" stroke-linecap="butt" fill="#FFFFFF" fill-rule="nonzero" fill-opacity="1.000000"/><path d=" M 468.750000 78.125000 L 500.000000 78.125000 L 500.000000 125.000000 L 468.750000 125.000000 Z" class="MsftOfcThm_Background1_Fill" stroke="none" stroke-width="1.000000" stroke-linecap="butt" fill="#FFFFFF" fill-rule="nonzero" fill-opacity="1.000000"/><path d=" M 687.500000 812.500000 L 718.750000 812.500000 L 718.750000 843.750000 L 687.500000 843.750000 Z" class="MsftOfcThm_Background1_Fill" stroke="none" stroke-width="1.000000" stroke-linecap="butt" fill="#FFFFFF" fill-rule="nonzero" fill-opacity="1.000000"/></g></svg>