<svg version="1.1" width="512.000000" height="512.000000" viewBox="0.000000 -32.000000 512.001350 512.000000" xmlns="http://www.w3.org/2000/svg" xmlns:xlink="http://www.w3.org/1999/xlink" overflow="hidden"><g><path d=" M 48.406250 231.785156 C 46.613281 233.476562 44.191406 234.515625 41.531250 234.515625 C 38.238281 234.515625 35.312500 232.921875 33.488281 230.468750 L 2.332031 193.339844 C -1.214844 189.105469 -0.652344 182.792969 3.585938 179.246094 C 7.820312 175.703125 14.132812 176.261719 17.679688 180.500000 L 32.972656 198.726562 C 38.878906 147.031250 62.347656 100.667969 97.261719 65.753906 C 137.886719 25.128906 194.011719 0.000000 256.000000 0.000000 C 309.148438 0.000000 358.000000 18.500000 396.476562 49.417969 C 435.691406 80.925781 464.097656 125.339844 475.261719 176.214844 C 476.425781 181.621094 472.992188 186.949219 467.585938 188.117188 C 462.179688 189.285156 456.851562 185.851562 455.683594 180.445312 C 445.523438 134.128906 419.656250 93.691406 383.949219 64.996094 C 348.945312 36.875000 304.457031 20.042969 256.003906 20.042969 C 199.542969 20.042969 148.433594 42.925781 111.433594 79.925781 C 79.421875 111.937500 57.980469 154.523438 52.781250 201.992188 L 72.683594 185.292969 C 76.917969 181.746094 83.230469 182.308594 86.773438 186.546875 C 90.320312 190.781250 89.761719 197.093750 85.523438 200.640625 Z M 184.789062 203.894531 L 173.902344 170.562500 L 225.996094 170.562500 C 231.531250 170.562500 236.015625 166.074219 236.015625 160.539062 C 236.015625 155.003906 231.531250 150.515625 225.996094 150.515625 L 167.355469 150.515625 L 157.296875 119.718750 C 155.925781 115.492188 152.003906 112.804688 147.785156 112.804688 L 110.242188 112.789062 C 104.707031 112.789062 100.222656 117.273438 100.222656 122.808594 C 100.222656 128.343750 104.707031 132.832031 110.242188 132.832031 L 140.535156 132.832031 C 158.484375 187.800781 176.437500 242.773438 194.386719 297.746094 C 187.265625 299.207031 180.902344 302.742188 175.949219 307.695312 C 169.339844 314.304688 165.250000 323.437500 165.250000 333.519531 C 165.250000 343.605469 169.339844 352.738281 175.949219 359.343750 C 182.558594 365.957031 191.691406 370.042969 201.773438 370.042969 C 211.859375 370.042969 220.988281 365.957031 227.601562 359.343750 C 234.210938 352.734375 238.296875 343.605469 238.296875 333.519531 C 238.296875 327.589844 236.882812 321.992188 234.375000 317.039062 L 303.960938 317.039062 C 301.441406 321.996094 300.019531 327.593750 300.019531 333.519531 C 300.019531 343.605469 304.109375 352.734375 310.718750 359.343750 C 317.328125 365.957031 326.460938 370.042969 336.546875 370.042969 C 346.628906 370.042969 355.761719 365.957031 362.371094 359.343750 C 368.980469 352.734375 373.066406 343.605469 373.066406 333.519531 C 373.066406 323.464844 368.984375 314.351562 362.378906 307.742188 C 355.589844 300.945312 346.140625 296.996094 336.523438 296.996094 L 215.191406 296.996094 L 209.417969 279.312500 L 336.550781 279.296875 C 340.765625 279.296875 344.687500 276.609375 346.062500 272.382812 L 381.367188 164.261719 C 381.828125 163.113281 382.082031 161.855469 382.082031 160.539062 C 382.082031 155.003906 377.597656 150.515625 372.062500 150.515625 L 306.171875 150.515625 C 300.636719 150.515625 296.152344 155.003906 296.152344 160.539062 C 296.152344 166.074219 300.636719 170.562500 306.171875 170.562500 L 358.265625 170.562500 L 347.378906 203.894531 Z M 340.835938 223.929688 L 191.328125 223.929688 L 202.871094 259.269531 L 329.296875 259.269531 Z M 266.082031 150.515625 C 260.546875 150.515625 256.062500 155.003906 256.062500 160.539062 C 256.062500 166.074219 260.546875 170.558594 266.082031 170.558594 C 271.617188 170.558594 276.105469 166.074219 276.105469 160.539062 C 276.105469 155.003906 271.617188 150.515625 266.082031 150.515625 Z M 337.234375 317.015625 C 341.511719 317.187500 345.375000 318.996094 348.207031 321.835938 C 351.183594 324.812500 353.027344 328.945312 353.027344 333.519531 C 353.027344 338.074219 351.179688 342.195312 348.199219 345.175781 C 345.218750 348.156250 341.097656 350.000000 336.546875 350.000000 C 331.996094 350.000000 327.875000 348.156250 324.894531 345.175781 C 321.910156 342.191406 320.066406 338.070312 320.066406 333.519531 C 320.066406 328.945312 321.910156 324.812500 324.886719 321.835938 C 327.617188 319.101562 331.304688 317.320312 335.398438 317.039062 C 336.101562 316.980469 336.515625 316.980469 337.234375 317.015625 Z M 213.429688 321.867188 C 216.410156 324.847656 218.253906 328.968750 218.253906 333.519531 C 218.253906 338.074219 216.410156 342.191406 213.429688 345.175781 C 210.449219 348.156250 206.328125 350.000000 201.777344 350.000000 C 197.222656 350.000000 193.101562 348.156250 190.125000 345.171875 C 187.140625 342.191406 185.296875 338.070312 185.296875 333.519531 C 185.296875 328.968750 187.140625 324.847656 190.125000 321.867188 C 193.101562 318.882812 197.226562 317.039062 201.777344 317.039062 C 206.328125 317.039062 210.449219 318.882812 213.429688 321.867188 Z M 439.320312 263.691406 L 459.218750 246.992188 C 454.023438 294.460938 432.578125 337.046875 400.566406 369.058594 C 363.570312 406.054688 312.457031 428.937500 256.000000 428.937500 C 207.546875 428.937500 163.054688 412.109375 128.050781 383.984375 C 92.343750 355.296875 66.476562 314.855469 56.316406 268.539062 C 55.148438 263.132812 49.820312 259.699219 44.417969 260.867188 C 39.011719 262.031250 35.574219 267.363281 36.742188 272.765625 C 47.902344 323.644531 76.308594 368.058594 115.523438 399.566406 C 154.003906 430.484375 202.855469 448.984375 256.003906 448.984375 C 317.992188 448.984375 374.113281 423.855469 414.738281 383.230469 C 449.652344 348.316406 473.125000 301.953125 479.027344 250.257812 L 494.324219 268.484375 C 497.867188 272.718750 504.179688 273.281250 508.417969 269.734375 C 512.652344 266.191406 513.214844 259.878906 509.671875 255.644531 L 478.515625 218.515625 C 476.687500 216.058594 473.765625 214.468750 470.472656 214.468750 C 467.808594 214.468750 465.390625 215.507812 463.597656 217.199219 L 426.480469 248.343750 C 422.242188 251.890625 421.679688 258.203125 425.226562 262.441406 C 428.773438 266.675781 435.082031 267.238281 439.320312 263.691406 Z" fill="#FFFFFF" fill-rule="evenodd"/></g></svg>