<svg version="1.1" viewBox="0.000000 0.000000 59.000000 59.000000" xmlns="http://www.w3.org/2000/svg" xmlns:xlink="http://www.w3.org/1999/xlink" id="Capa_1" overflow="hidden"><style>
.MsftOfcThm_Background1_Fill {
 fill:#FFFFFF; 
}
</style>
<g><path d=" M 8.000000 42.580002 L 8.000000 3.500000 C 8.000000 2.947000 7.553000 2.500000 7.000000 2.500000 C 6.447000 2.500000 6.000000 2.947000 6.000000 3.500000 L 6.000000 42.580002 C 2.614000 43.068001 0.000000 45.980999 0.000000 49.500000 C 0.000000 53.359001 3.141000 56.500000 7.000000 56.500000 C 10.859000 56.500000 14.000000 53.359001 14.000000 49.500000 C 14.000000 45.980999 11.386000 43.068001 8.000000 42.580002 Z M 7.000000 54.500000 C 4.243000 54.500000 2.000000 52.257000 2.000000 49.500000 C 2.000000 46.743000 4.243000 44.500000 7.000000 44.500000 C 9.757000 44.500000 12.000000 46.743000 12.000000 49.500000 C 12.000000 52.257000 9.757000 54.500000 7.000000 54.500000 Z" class="MsftOfcThm_Background1_Fill" stroke="none" stroke-width="1.000000" stroke-linecap="butt" fill="#FFFFFF" fill-opacity="1.000000"/><path d=" M 23.000000 30.580000 L 23.000000 3.500000 C 23.000000 2.947000 22.552999 2.500000 22.000000 2.500000 C 21.447001 2.500000 21.000000 2.947000 21.000000 3.500000 L 21.000000 30.580000 C 17.614000 31.068001 15.000000 33.980999 15.000000 37.500000 C 15.000000 41.019001 17.614000 43.931999 21.000000 44.419998 L 21.000000 55.500000 C 21.000000 56.053001 21.447001 56.500000 22.000000 56.500000 C 22.552999 56.500000 23.000000 56.053001 23.000000 55.500000 L 23.000000 44.419998 C 26.386000 43.931999 29.000000 41.019001 29.000000 37.500000 C 29.000000 33.980999 26.386000 31.068001 23.000000 30.580000 Z M 22.000000 42.500000 C 19.243000 42.500000 17.000000 40.257000 17.000000 37.500000 C 17.000000 34.743000 19.243000 32.500000 22.000000 32.500000 C 24.757000 32.500000 27.000000 34.743000 27.000000 37.500000 C 27.000000 40.257000 24.757000 42.500000 22.000000 42.500000 Z" class="MsftOfcThm_Background1_Fill" stroke="none" stroke-width="1.000000" stroke-linecap="butt" fill="#FFFFFF" fill-opacity="1.000000"/><path d=" M 38.000000 18.580000 L 38.000000 3.500000 C 38.000000 2.947000 37.553001 2.500000 37.000000 2.500000 C 36.446999 2.500000 36.000000 2.947000 36.000000 3.500000 L 36.000000 18.580000 C 32.613998 19.068001 30.000000 21.981001 30.000000 25.500000 C 30.000000 29.018999 32.613998 31.931999 36.000000 32.419998 L 36.000000 55.500000 C 36.000000 56.053001 36.446999 56.500000 37.000000 56.500000 C 37.553001 56.500000 38.000000 56.053001 38.000000 55.500000 L 38.000000 32.419998 C 41.386002 31.931999 44.000000 29.018999 44.000000 25.500000 C 44.000000 21.981001 41.386002 19.068001 38.000000 18.580000 Z M 37.000000 30.500000 C 34.243000 30.500000 32.000000 28.257000 32.000000 25.500000 C 32.000000 22.743000 34.243000 20.500000 37.000000 20.500000 C 39.757000 20.500000 42.000000 22.743000 42.000000 25.500000 C 42.000000 28.257000 39.757000 30.500000 37.000000 30.500000 Z" class="MsftOfcThm_Background1_Fill" stroke="none" stroke-width="1.000000" stroke-linecap="butt" fill="#FFFFFF" fill-opacity="1.000000"/><path d=" M 59.000000 13.500000 C 59.000000 9.981000 56.386002 7.068000 53.000000 6.580000 L 53.000000 3.500000 C 53.000000 2.947000 52.553001 2.500000 52.000000 2.500000 C 51.446999 2.500000 51.000000 2.947000 51.000000 3.500000 L 51.000000 6.580000 C 47.613998 7.068000 45.000000 9.981000 45.000000 13.500000 C 45.000000 17.018999 47.613998 19.931999 51.000000 20.420000 L 51.000000 55.500000 C 51.000000 56.053001 51.446999 56.500000 52.000000 56.500000 C 52.553001 56.500000 53.000000 56.053001 53.000000 55.500000 L 53.000000 20.420000 C 56.386002 19.931999 59.000000 17.018999 59.000000 13.500000 Z M 52.000000 18.500000 C 49.243000 18.500000 47.000000 16.257000 47.000000 13.500000 C 47.000000 10.743000 49.243000 8.500000 52.000000 8.500000 C 54.757000 8.500000 57.000000 10.743000 57.000000 13.500000 C 57.000000 16.257000 54.757000 18.500000 52.000000 18.500000 Z" class="MsftOfcThm_Background1_Fill" stroke="none" stroke-width="1.000000" stroke-linecap="butt" fill="#FFFFFF" fill-opacity="1.000000"/><path d=" M 53.000000 10.500000 L 51.000000 10.500000 C 50.446999 10.500000 50.000000 10.947000 50.000000 11.500000 C 50.000000 12.053000 50.446999 12.500000 51.000000 12.500000 L 53.000000 12.500000 C 53.553001 12.500000 54.000000 12.053000 54.000000 11.500000 C 54.000000 10.947000 53.553001 10.500000 53.000000 10.500000 Z" class="MsftOfcThm_Background1_Fill" stroke="none" stroke-width="1.000000" stroke-linecap="butt" fill="#FFFFFF" fill-opacity="1.000000"/><path d=" M 38.000000 22.500000 L 36.000000 22.500000 C 35.446999 22.500000 35.000000 22.947001 35.000000 23.500000 C 35.000000 24.052999 35.446999 24.500000 36.000000 24.500000 L 38.000000 24.500000 C 38.553001 24.500000 39.000000 24.052999 39.000000 23.500000 C 39.000000 22.947001 38.553001 22.500000 38.000000 22.500000 Z" class="MsftOfcThm_Background1_Fill" stroke="none" stroke-width="1.000000" stroke-linecap="butt" fill="#FFFFFF" fill-opacity="1.000000"/><path d=" M 38.000000 26.500000 L 36.000000 26.500000 C 35.446999 26.500000 35.000000 26.947001 35.000000 27.500000 C 35.000000 28.052999 35.446999 28.500000 36.000000 28.500000 L 38.000000 28.500000 C 38.553001 28.500000 39.000000 28.052999 39.000000 27.500000 C 39.000000 26.947001 38.553001 26.500000 38.000000 26.500000 Z" class="MsftOfcThm_Background1_Fill" stroke="none" stroke-width="1.000000" stroke-linecap="butt" fill="#FFFFFF" fill-opacity="1.000000"/><path d=" M 23.000000 34.500000 L 21.000000 34.500000 C 20.447001 34.500000 20.000000 34.946999 20.000000 35.500000 C 20.000000 36.053001 20.447001 36.500000 21.000000 36.500000 L 23.000000 36.500000 C 23.552999 36.500000 24.000000 36.053001 24.000000 35.500000 C 24.000000 34.946999 23.552999 34.500000 23.000000 34.500000 Z" class="MsftOfcThm_Background1_Fill" stroke="none" stroke-width="1.000000" stroke-linecap="butt" fill="#FFFFFF" fill-opacity="1.000000"/><path d=" M 23.000000 38.500000 L 21.000000 38.500000 C 20.447001 38.500000 20.000000 38.946999 20.000000 39.500000 C 20.000000 40.053001 20.447001 40.500000 21.000000 40.500000 L 23.000000 40.500000 C 23.552999 40.500000 24.000000 40.053001 24.000000 39.500000 C 24.000000 38.946999 23.552999 38.500000 23.000000 38.500000 Z" class="MsftOfcThm_Background1_Fill" stroke="none" stroke-width="1.000000" stroke-linecap="butt" fill="#FFFFFF" fill-opacity="1.000000"/><path d=" M 8.000000 46.500000 L 6.000000 46.500000 C 5.447000 46.500000 5.000000 46.946999 5.000000 47.500000 C 5.000000 48.053001 5.447000 48.500000 6.000000 48.500000 L 8.000000 48.500000 C 8.553000 48.500000 9.000000 48.053001 9.000000 47.500000 C 9.000000 46.946999 8.553000 46.500000 8.000000 46.500000 Z" class="MsftOfcThm_Background1_Fill" stroke="none" stroke-width="1.000000" stroke-linecap="butt" fill="#FFFFFF" fill-opacity="1.000000"/><path d=" M 8.000000 50.500000 L 6.000000 50.500000 C 5.447000 50.500000 5.000000 50.946999 5.000000 51.500000 C 5.000000 52.053001 5.447000 52.500000 6.000000 52.500000 L 8.000000 52.500000 C 8.553000 52.500000 9.000000 52.053001 9.000000 51.500000 C 9.000000 50.946999 8.553000 50.500000 8.000000 50.500000 Z" class="MsftOfcThm_Background1_Fill" stroke="none" stroke-width="1.000000" stroke-linecap="butt" fill="#FFFFFF" fill-opacity="1.000000"/><path d=" M 53.000000 14.500000 L 51.000000 14.500000 C 50.446999 14.500000 50.000000 14.947000 50.000000 15.500000 C 50.000000 16.052999 50.446999 16.500000 51.000000 16.500000 L 53.000000 16.500000 C 53.553001 16.500000 54.000000 16.052999 54.000000 15.500000 C 54.000000 14.947000 53.553001 14.500000 53.000000 14.500000 Z" class="MsftOfcThm_Background1_Fill" stroke="none" stroke-width="1.000000" stroke-linecap="butt" fill="#FFFFFF" fill-opacity="1.000000"/></g><g></g><g></g><g></g><g></g><g></g><g></g><g></g><g></g><g></g><g></g><g></g><g></g><g></g><g></g><g></g></svg>