<svg version="1.1" width="682.666667" height="682.666667" viewBox="-8.000000 0.000000 512.000000 512.032000" xmlns="http://www.w3.org/2000/svg" xmlns:xlink="http://www.w3.org/1999/xlink" overflow="hidden"><style>
.MsftOfcThm_Background1_Fill {
 fill:#FFFFFF; 
}
</style>
<path d=" M 128.015625 472.023438 C 123.593750 472.023438 120.015625 468.449219 120.015625 464.023438 C 120.015625 433.152344 145.144531 408.031250 176.015625 408.031250 C 180.441406 408.031250 184.015625 411.609375 184.015625 416.031250 C 184.015625 420.457031 180.441406 424.031250 176.015625 424.031250 C 153.960938 424.031250 136.015625 441.968750 136.015625 464.023438 C 136.015625 468.449219 132.441406 472.023438 128.015625 472.023438 Z" class="MsftOfcThm_Background1_Fill" stroke="none" stroke-width="1.000000" stroke-linecap="butt" fill="#FFFFFF" fill-opacity="1.000000"/><path d=" M 208.015625 424.039062 L 176.015625 424.031250 C 171.593750 424.031250 168.015625 420.449219 168.015625 416.031250 C 168.015625 411.609375 171.601562 408.031250 176.015625 408.031250 L 208.015625 408.039062 C 212.441406 408.039062 216.015625 411.625000 216.015625 416.039062 C 216.015625 420.464844 212.433594 424.039062 208.015625 424.039062 Z" class="MsftOfcThm_Background1_Fill" stroke="none" stroke-width="1.000000" stroke-linecap="butt" fill="#FFFFFF" fill-opacity="1.000000"/><path d=" M 128.015625 496.031250 C 123.593750 496.031250 120.015625 492.457031 120.015625 488.031250 L 120.015625 466.320312 C 120.015625 461.894531 123.593750 458.320312 128.015625 458.320312 C 132.441406 458.320312 136.015625 461.894531 136.015625 466.320312 L 136.015625 488.031250 C 136.015625 492.457031 132.441406 496.031250 128.015625 496.031250 Z" class="MsftOfcThm_Background1_Fill" stroke="none" stroke-width="1.000000" stroke-linecap="butt" fill="#FFFFFF" fill-opacity="1.000000"/><path d=" M 368.015625 472.023438 C 363.593750 472.023438 360.015625 468.449219 360.015625 464.023438 C 360.015625 441.968750 342.070312 424.031250 320.015625 424.031250 C 315.593750 424.031250 312.015625 420.457031 312.015625 416.031250 C 312.015625 411.609375 315.593750 408.031250 320.015625 408.031250 C 350.886719 408.031250 376.015625 433.152344 376.015625 464.023438 C 376.015625 468.449219 372.441406 472.023438 368.015625 472.023438 Z" class="MsftOfcThm_Background1_Fill" stroke="none" stroke-width="1.000000" stroke-linecap="butt" fill="#FFFFFF" fill-opacity="1.000000"/><path d=" M 288.015625 424.039062 C 283.601562 424.039062 280.015625 420.464844 280.015625 416.039062 C 280.015625 411.625000 283.593750 408.039062 288.015625 408.039062 L 320.015625 408.031250 C 324.433594 408.031250 328.015625 411.609375 328.015625 416.031250 C 328.015625 420.449219 324.441406 424.031250 320.015625 424.031250 Z" class="MsftOfcThm_Background1_Fill" stroke="none" stroke-width="1.000000" stroke-linecap="butt" fill="#FFFFFF" fill-opacity="1.000000"/><path d=" M 368.015625 496.031250 C 363.593750 496.031250 360.015625 492.457031 360.015625 488.031250 L 360.015625 466.320312 C 360.015625 461.894531 363.593750 458.320312 368.015625 458.320312 C 372.441406 458.320312 376.015625 461.894531 376.015625 466.320312 L 376.015625 488.031250 C 376.015625 492.457031 372.441406 496.031250 368.015625 496.031250 Z" class="MsftOfcThm_Background1_Fill" stroke="none" stroke-width="1.000000" stroke-linecap="butt" fill="#FFFFFF" fill-opacity="1.000000"/><path d=" M 352.015625 512.031250 L 144.015625 512.031250 C 139.593750 512.031250 136.015625 508.457031 136.015625 504.031250 C 136.015625 499.609375 139.593750 496.031250 144.015625 496.031250 L 352.015625 496.031250 C 356.441406 496.031250 360.015625 499.609375 360.015625 504.031250 C 360.015625 508.457031 356.441406 512.031250 352.015625 512.031250 Z" class="MsftOfcThm_Background1_Fill" stroke="none" stroke-width="1.000000" stroke-linecap="butt" fill="#FFFFFF" fill-opacity="1.000000"/><path d=" M 208.015625 424.039062 C 203.593750 424.039062 200.015625 420.464844 200.015625 416.039062 L 200.015625 390.433594 C 200.015625 386.007812 203.593750 382.433594 208.015625 382.433594 C 212.441406 382.433594 216.015625 386.007812 216.015625 390.433594 L 216.015625 416.039062 C 216.015625 420.464844 212.441406 424.039062 208.015625 424.039062 Z" class="MsftOfcThm_Background1_Fill" stroke="none" stroke-width="1.000000" stroke-linecap="butt" fill="#FFFFFF" fill-opacity="1.000000"/><path d=" M 288.015625 424.031250 C 283.593750 424.031250 280.015625 420.457031 280.015625 416.031250 L 280.015625 390.433594 C 280.015625 386.007812 283.593750 382.433594 288.015625 382.433594 C 292.441406 382.433594 296.015625 386.007812 296.015625 390.433594 L 296.015625 416.031250 C 296.015625 420.457031 292.441406 424.031250 288.015625 424.031250 Z" class="MsftOfcThm_Background1_Fill" stroke="none" stroke-width="1.000000" stroke-linecap="butt" fill="#FFFFFF" fill-opacity="1.000000"/><path d=" M 248.015625 408.031250 C 195.078125 408.031250 152.015625 364.968750 152.015625 312.031250 C 152.015625 307.609375 155.593750 304.031250 160.015625 304.031250 C 164.441406 304.031250 168.015625 307.609375 168.015625 312.031250 C 168.015625 356.144531 203.902344 392.031250 248.015625 392.031250 C 292.128906 392.031250 328.015625 356.144531 328.015625 312.031250 C 328.015625 307.609375 331.593750 304.031250 336.015625 304.031250 C 340.441406 304.031250 344.015625 307.609375 344.015625 312.031250 C 344.015625 364.968750 300.953125 408.031250 248.015625 408.031250 Z" class="MsftOfcThm_Background1_Fill" stroke="none" stroke-width="1.000000" stroke-linecap="butt" fill="#FFFFFF" fill-opacity="1.000000"/><path d=" M 160.015625 320.039062 C 155.593750 320.039062 152.015625 316.464844 152.015625 312.039062 L 152.015625 240.031250 C 152.015625 235.609375 155.593750 232.031250 160.015625 232.031250 C 164.441406 232.031250 168.015625 235.609375 168.015625 240.031250 L 168.015625 312.039062 C 168.015625 316.464844 164.441406 320.039062 160.015625 320.039062 Z" class="MsftOfcThm_Background1_Fill" stroke="none" stroke-width="1.000000" stroke-linecap="butt" fill="#FFFFFF" fill-opacity="1.000000"/><path d=" M 336.015625 320.046875 C 331.593750 320.046875 328.015625 316.472656 328.015625 312.046875 L 328.015625 240.031250 C 328.015625 235.609375 331.593750 232.031250 336.015625 232.031250 C 340.441406 232.031250 344.015625 235.609375 344.015625 240.031250 L 344.015625 312.046875 C 344.015625 316.472656 340.441406 320.046875 336.015625 320.046875 Z" class="MsftOfcThm_Background1_Fill" stroke="none" stroke-width="1.000000" stroke-linecap="butt" fill="#FFFFFF" fill-opacity="1.000000"/><path d=" M 336.015625 248.031250 C 331.593750 248.031250 328.015625 244.457031 328.015625 240.031250 C 328.015625 222.382812 313.664062 208.031250 296.015625 208.031250 C 291.593750 208.031250 288.015625 204.457031 288.015625 200.031250 C 288.015625 195.609375 291.593750 192.031250 296.015625 192.031250 C 322.488281 192.031250 344.015625 213.558594 344.015625 240.031250 C 344.015625 244.457031 340.441406 248.031250 336.015625 248.031250 Z" class="MsftOfcThm_Background1_Fill" stroke="none" stroke-width="1.000000" stroke-linecap="butt" fill="#FFFFFF" fill-opacity="1.000000"/><path d=" M 296.015625 208.031250 C 291.593750 208.031250 288.015625 204.457031 288.015625 200.031250 L 288.015625 168.031250 C 288.015625 163.609375 291.593750 160.031250 296.015625 160.031250 C 300.441406 160.031250 304.015625 163.609375 304.015625 168.031250 L 304.015625 200.031250 C 304.015625 204.457031 300.441406 208.031250 296.015625 208.031250 Z" class="MsftOfcThm_Background1_Fill" stroke="none" stroke-width="1.000000" stroke-linecap="butt" fill="#FFFFFF" fill-opacity="1.000000"/><path d=" M 296.015625 176.031250 L 232.015625 176.031250 C 227.593750 176.031250 224.015625 172.457031 224.015625 168.031250 C 224.015625 163.609375 227.593750 160.031250 232.015625 160.031250 L 296.015625 160.031250 C 300.441406 160.031250 304.015625 163.609375 304.015625 168.031250 C 304.015625 172.457031 300.441406 176.031250 296.015625 176.031250 Z" class="MsftOfcThm_Background1_Fill" stroke="none" stroke-width="1.000000" stroke-linecap="butt" fill="#FFFFFF" fill-opacity="1.000000"/><path d=" M 160.015625 248.031250 C 155.593750 248.031250 152.015625 244.457031 152.015625 240.031250 C 152.015625 195.921875 187.902344 160.039062 232.015625 160.039062 C 236.441406 160.039062 240.015625 163.617188 240.015625 168.039062 C 240.015625 172.464844 236.441406 176.039062 232.015625 176.039062 C 196.726562 176.039062 168.015625 204.742188 168.015625 240.031250 C 168.015625 244.457031 164.441406 248.031250 160.015625 248.031250 Z" class="MsftOfcThm_Background1_Fill" stroke="none" stroke-width="1.000000" stroke-linecap="butt" fill="#FFFFFF" fill-opacity="1.000000"/><path d=" M 336.015625 288.031250 C 333.968750 288.031250 331.921875 287.246094 330.359375 285.687500 L 306.359375 261.687500 C 303.230469 258.558594 303.230469 253.503906 306.359375 250.375000 C 309.488281 247.246094 314.542969 247.246094 317.671875 250.375000 L 341.671875 274.375000 C 344.800781 277.503906 344.800781 282.558594 341.671875 285.687500 C 340.113281 287.246094 338.062500 288.031250 336.015625 288.031250 Z" class="MsftOfcThm_Background1_Fill" stroke="none" stroke-width="1.000000" stroke-linecap="butt" fill="#FFFFFF" fill-opacity="1.000000"/><path d=" M 248.015625 280.031250 C 212.136719 280.031250 181.511719 263.769531 180.222656 263.078125 C 176.335938 260.984375 174.878906 256.144531 176.968750 252.246094 C 179.054688 248.367188 183.886719 246.871094 187.800781 248.984375 C 188.078125 249.136719 216.281250 264.031250 248.015625 264.031250 C 279.910156 264.031250 307.945312 249.144531 308.222656 248.984375 C 312.105469 246.894531 316.968750 248.351562 319.054688 252.238281 C 321.144531 256.128906 319.687500 260.984375 315.800781 263.070312 C 314.519531 263.769531 283.894531 280.031250 248.015625 280.031250 Z" class="MsftOfcThm_Background1_Fill" stroke="none" stroke-width="1.000000" stroke-linecap="butt" fill="#FFFFFF" fill-opacity="1.000000"/><path d=" M 160.015625 288.031250 C 157.968750 288.031250 155.921875 287.246094 154.359375 285.687500 C 151.230469 282.558594 151.230469 277.503906 154.359375 274.375000 L 178.359375 250.375000 C 181.488281 247.246094 186.542969 247.246094 189.671875 250.375000 C 192.800781 253.503906 192.800781 258.558594 189.671875 261.687500 L 165.671875 285.687500 C 164.113281 287.246094 162.062500 288.031250 160.015625 288.031250 Z" class="MsftOfcThm_Background1_Fill" stroke="none" stroke-width="1.000000" stroke-linecap="butt" fill="#FFFFFF" fill-opacity="1.000000"/><path d=" M 224.015625 440.031250 C 221.968750 440.031250 219.921875 439.246094 218.359375 437.687500 L 202.359375 421.695312 C 199.230469 418.566406 199.230469 413.511719 202.359375 410.382812 C 205.488281 407.257812 210.542969 407.257812 213.671875 410.382812 L 229.671875 426.375000 C 232.800781 429.503906 232.800781 434.558594 229.671875 437.687500 C 228.113281 439.246094 226.062500 440.031250 224.015625 440.031250 Z" class="MsftOfcThm_Background1_Fill" stroke="none" stroke-width="1.000000" stroke-linecap="butt" fill="#FFFFFF" fill-opacity="1.000000"/><path d=" M 224.015625 440.031250 C 220.664062 440.031250 217.542969 437.910156 216.433594 434.558594 C 215.031250 430.367188 217.296875 425.832031 221.488281 424.441406 L 245.488281 416.441406 C 249.703125 415.031250 254.207031 417.304688 255.609375 421.496094 C 257.007812 425.687500 254.742188 430.222656 250.550781 431.617188 L 226.550781 439.617188 C 225.703125 439.894531 224.847656 440.031250 224.015625 440.031250 Z" class="MsftOfcThm_Background1_Fill" stroke="none" stroke-width="1.000000" stroke-linecap="butt" fill="#FFFFFF" fill-opacity="1.000000"/><path d=" M 272.015625 440.031250 C 269.968750 440.031250 267.921875 439.246094 266.359375 437.687500 C 263.230469 434.558594 263.230469 429.503906 266.359375 426.375000 L 282.359375 410.382812 C 285.488281 407.257812 290.542969 407.257812 293.671875 410.382812 C 296.800781 413.511719 296.800781 418.566406 293.671875 421.695312 L 277.671875 437.687500 C 276.113281 439.246094 274.062500 440.031250 272.015625 440.031250 Z" class="MsftOfcThm_Background1_Fill" stroke="none" stroke-width="1.000000" stroke-linecap="butt" fill="#FFFFFF" fill-opacity="1.000000"/><path d=" M 272.015625 440.031250 C 271.183594 440.031250 270.328125 439.894531 269.488281 439.617188 L 245.488281 431.617188 C 241.304688 430.222656 239.031250 425.695312 240.433594 421.496094 C 241.832031 417.312500 246.320312 415.031250 250.550781 416.441406 L 274.550781 424.441406 C 278.734375 425.832031 281.007812 430.359375 279.609375 434.558594 C 278.488281 437.910156 275.367188 440.031250 272.015625 440.031250 Z" class="MsftOfcThm_Background1_Fill" stroke="none" stroke-width="1.000000" stroke-linecap="butt" fill="#FFFFFF" fill-opacity="1.000000"/><path d=" M 352.015625 512.031250 C 347.593750 512.031250 344.015625 508.457031 344.015625 504.031250 C 344.015625 499.609375 347.593750 496.031250 352.015625 496.031250 C 356.433594 496.031250 360.015625 492.449219 360.015625 488.031250 C 360.015625 483.609375 363.593750 480.031250 368.015625 480.031250 C 372.441406 480.031250 376.015625 483.609375 376.015625 488.031250 C 376.015625 501.265625 365.246094 512.031250 352.015625 512.031250 Z" class="MsftOfcThm_Background1_Fill" stroke="none" stroke-width="1.000000" stroke-linecap="butt" fill="#FFFFFF" fill-opacity="1.000000"/><path d=" M 144.015625 512.031250 C 130.785156 512.031250 120.015625 501.265625 120.015625 488.031250 C 120.015625 483.609375 123.593750 480.031250 128.015625 480.031250 C 132.441406 480.031250 136.015625 483.609375 136.015625 488.031250 C 136.015625 492.449219 139.601562 496.031250 144.015625 496.031250 C 148.441406 496.031250 152.015625 499.609375 152.015625 504.031250 C 152.015625 508.457031 148.441406 512.031250 144.015625 512.031250 Z" class="MsftOfcThm_Background1_Fill" stroke="none" stroke-width="1.000000" stroke-linecap="butt" fill="#FFFFFF" fill-opacity="1.000000"/><path d=" M 248.257812 472.031250 C 243.832031 472.031250 240.214844 468.457031 240.214844 464.031250 C 240.214844 459.609375 243.753906 456.031250 248.167969 456.031250 L 248.257812 456.031250 C 252.671875 456.031250 256.257812 459.609375 256.257812 464.031250 C 256.257812 468.457031 252.671875 472.031250 248.257812 472.031250 Z" class="MsftOfcThm_Background1_Fill" stroke="none" stroke-width="1.000000" stroke-linecap="butt" fill="#FFFFFF" fill-opacity="1.000000"/><path d=" M 56.257812 288.007812 C 51.832031 288.007812 48.214844 284.433594 48.214844 280.007812 C 48.214844 275.585938 51.753906 272.007812 56.167969 272.007812 L 56.257812 272.007812 C 60.671875 272.007812 64.257812 275.585938 64.257812 280.007812 C 64.257812 284.433594 60.671875 288.007812 56.257812 288.007812 Z" class="MsftOfcThm_Background1_Fill" stroke="none" stroke-width="1.000000" stroke-linecap="butt" fill="#FFFFFF" fill-opacity="1.000000"/><path d=" M 56.015625 312.023438 C 25.144531 312.023438 0.015625 286.894531 0.015625 256.023438 C 0.015625 225.152344 25.136719 200.023438 56.015625 200.015625 C 70.976562 200.015625 85.039062 205.847656 95.617188 216.414062 C 106.191406 226.992188 112.015625 241.054688 112.015625 256.015625 C 112.015625 286.894531 86.886719 312.023438 56.015625 312.023438 Z M 56.031250 216.015625 C 33.968750 216.023438 16.015625 233.968750 16.015625 256.023438 C 16.015625 278.078125 33.960938 296.023438 56.015625 296.023438 C 78.070312 296.023438 96.015625 278.078125 96.015625 256.015625 C 96.015625 233.960938 78.078125 216.015625 56.031250 216.015625 Z" class="MsftOfcThm_Background1_Fill" stroke="none" stroke-width="1.000000" stroke-linecap="butt" fill="#FFFFFF" fill-opacity="1.000000"/><path d=" M 56.015625 264.023438 C 51.593750 264.023438 48.015625 260.449219 48.015625 256.023438 L 48.015625 232.007812 C 48.015625 227.585938 51.593750 224.007812 56.015625 224.007812 C 60.441406 224.007812 64.015625 227.585938 64.015625 232.007812 L 64.015625 256.023438 C 64.015625 260.449219 60.441406 264.023438 56.015625 264.023438 Z" class="MsftOfcThm_Background1_Fill" stroke="none" stroke-width="1.000000" stroke-linecap="butt" fill="#FFFFFF" fill-opacity="1.000000"/><path d=" M 128.015625 264.031250 L 104.023438 264.031250 C 99.601562 264.031250 96.023438 260.457031 96.023438 256.031250 C 96.023438 251.609375 99.601562 248.031250 104.023438 248.031250 L 128.015625 248.031250 C 132.441406 248.031250 136.015625 251.609375 136.015625 256.031250 C 136.015625 260.457031 132.441406 264.031250 128.015625 264.031250 Z" class="MsftOfcThm_Background1_Fill" stroke="none" stroke-width="1.000000" stroke-linecap="butt" fill="#FFFFFF" fill-opacity="1.000000"/><path d=" M 440.265625 288.023438 C 435.839844 288.023438 432.222656 284.449219 432.222656 280.023438 C 432.222656 275.601562 435.761719 272.023438 440.175781 272.023438 L 440.265625 272.023438 C 444.679688 272.023438 448.265625 275.601562 448.265625 280.023438 C 448.265625 284.449219 444.679688 288.023438 440.265625 288.023438 Z" class="MsftOfcThm_Background1_Fill" stroke="none" stroke-width="1.000000" stroke-linecap="butt" fill="#FFFFFF" fill-opacity="1.000000"/><path d=" M 440.023438 312.031250 C 409.152344 312.031250 384.023438 286.902344 384.023438 256.015625 C 384.023438 225.144531 409.144531 200.023438 440.015625 200.023438 C 470.886719 200.023438 496.015625 225.152344 496.015625 256.023438 C 496.007812 286.894531 470.886719 312.023438 440.023438 312.031250 Z M 440.015625 216.023438 C 417.960938 216.023438 400.023438 233.960938 400.023438 256.015625 C 400.023438 278.078125 417.968750 296.031250 440.023438 296.031250 C 462.070312 296.023438 480.007812 278.078125 480.015625 256.023438 C 480.015625 233.968750 462.070312 216.023438 440.015625 216.023438 Z" class="MsftOfcThm_Background1_Fill" stroke="none" stroke-width="1.000000" stroke-linecap="butt" fill="#FFFFFF" fill-opacity="1.000000"/><path d=" M 440.023438 264.031250 C 435.609375 264.031250 432.023438 260.457031 432.023438 256.031250 L 432.015625 232.023438 C 432.015625 227.609375 435.593750 224.023438 440.015625 224.023438 C 444.433594 224.023438 448.015625 227.601562 448.015625 232.023438 L 448.023438 256.031250 C 448.023438 260.449219 444.449219 264.031250 440.023438 264.031250 Z" class="MsftOfcThm_Background1_Fill" stroke="none" stroke-width="1.000000" stroke-linecap="butt" fill="#FFFFFF" fill-opacity="1.000000"/><path d=" M 392.015625 264.039062 L 368.015625 264.031250 C 363.593750 264.031250 360.015625 260.449219 360.015625 256.031250 C 360.015625 251.609375 363.601562 248.031250 368.015625 248.031250 L 392.015625 248.039062 C 396.441406 248.039062 400.015625 251.625000 400.015625 256.039062 C 400.015625 260.464844 396.433594 264.039062 392.015625 264.039062 Z" class="MsftOfcThm_Background1_Fill" stroke="none" stroke-width="1.000000" stroke-linecap="butt" fill="#FFFFFF" fill-opacity="1.000000"/><path d=" M 389.695312 146.601562 C 385.273438 146.601562 381.656250 143.023438 381.656250 138.601562 C 381.656250 134.175781 385.191406 130.601562 389.609375 130.601562 L 389.695312 130.601562 C 394.113281 130.601562 397.695312 134.175781 397.695312 138.601562 C 397.695312 143.023438 394.113281 146.601562 389.695312 146.601562 Z" class="MsftOfcThm_Background1_Fill" stroke="none" stroke-width="1.000000" stroke-linecap="butt" fill="#FFFFFF" fill-opacity="1.000000"/><path d=" M 389.457031 170.609375 C 389.449219 170.609375 389.449219 170.609375 389.457031 170.609375 C 358.574219 170.609375 333.457031 145.480469 333.457031 114.593750 C 333.457031 83.718750 358.574219 58.593750 389.449219 58.593750 C 420.320312 58.593750 445.441406 83.718750 445.441406 114.593750 C 445.441406 145.464844 420.320312 170.593750 389.457031 170.609375 Z M 389.449219 74.593750 C 367.390625 74.593750 349.457031 92.535156 349.457031 114.593750 C 349.457031 136.656250 367.390625 154.609375 389.449219 154.609375 C 411.496094 154.593750 429.441406 136.648438 429.441406 114.593750 C 429.441406 92.535156 411.503906 74.593750 389.449219 74.593750 Z" class="MsftOfcThm_Background1_Fill" stroke="none" stroke-width="1.000000" stroke-linecap="butt" fill="#FFFFFF" fill-opacity="1.000000"/><path d=" M 389.457031 122.609375 C 385.039062 122.609375 381.457031 119.031250 381.457031 114.617188 L 381.441406 90.609375 C 381.441406 86.183594 385.015625 82.601562 389.433594 82.601562 L 389.441406 82.601562 C 393.855469 82.601562 397.441406 86.175781 397.441406 90.593750 L 397.457031 114.601562 C 397.457031 119.023438 393.871094 122.609375 389.457031 122.609375 Z" class="MsftOfcThm_Background1_Fill" stroke="none" stroke-width="1.000000" stroke-linecap="butt" fill="#FFFFFF" fill-opacity="1.000000"/><path d=" M 338.527344 173.519531 C 336.480469 173.519531 334.433594 172.734375 332.871094 171.175781 C 329.742188 168.046875 329.742188 162.984375 332.871094 159.863281 L 349.847656 142.902344 C 352.976562 139.777344 358.031250 139.777344 361.160156 142.902344 C 364.289062 146.031250 364.289062 151.097656 361.160156 154.214844 L 344.183594 171.175781 C 342.625000 172.734375 340.574219 173.519531 338.527344 173.519531 Z" class="MsftOfcThm_Background1_Fill" stroke="none" stroke-width="1.000000" stroke-linecap="butt" fill="#FFFFFF" fill-opacity="1.000000"/><path d=" M 248.273438 88.000000 C 243.847656 88.000000 240.230469 84.425781 240.230469 80.000000 C 240.230469 75.574219 243.769531 72.000000 248.183594 72.000000 L 248.273438 72.000000 C 252.687500 72.000000 256.273438 75.574219 256.273438 80.000000 C 256.273438 84.425781 252.687500 88.000000 248.273438 88.000000 Z" class="MsftOfcThm_Background1_Fill" stroke="none" stroke-width="1.000000" stroke-linecap="butt" fill="#FFFFFF" fill-opacity="1.000000"/><path d=" M 248.023438 112.015625 C 248.015625 112.015625 248.015625 112.015625 248.023438 112.015625 C 217.144531 112.015625 192.015625 86.886719 192.015625 56.000000 C 192.015625 25.128906 217.144531 0.000000 248.015625 0.000000 C 278.886719 0.000000 304.015625 25.128906 304.015625 56.000000 C 304.015625 86.863281 278.894531 112.000000 248.023438 112.015625 Z M 248.015625 16.000000 C 225.960938 16.000000 208.015625 33.945312 208.015625 56.000000 C 208.015625 78.062500 225.960938 96.015625 248.015625 96.015625 C 270.070312 96.000000 288.015625 78.054688 288.015625 56.000000 C 288.015625 33.945312 270.070312 16.000000 248.015625 16.000000 Z" class="MsftOfcThm_Background1_Fill" stroke="none" stroke-width="1.000000" stroke-linecap="butt" fill="#FFFFFF" fill-opacity="1.000000"/><path d=" M 248.015625 64.015625 C 243.593750 64.015625 240.015625 60.441406 240.015625 56.015625 L 240.015625 32.000000 C 240.015625 27.574219 243.593750 24.000000 248.015625 24.000000 C 252.441406 24.000000 256.015625 27.574219 256.015625 32.000000 L 256.015625 56.015625 C 256.015625 60.441406 252.441406 64.015625 248.015625 64.015625 Z" class="MsftOfcThm_Background1_Fill" stroke="none" stroke-width="1.000000" stroke-linecap="butt" fill="#FFFFFF" fill-opacity="1.000000"/><path d=" M 248.031250 136.015625 C 243.609375 136.015625 240.031250 132.441406 240.031250 128.015625 L 240.031250 104.015625 C 240.031250 99.593750 243.609375 96.015625 248.031250 96.015625 C 252.457031 96.015625 256.031250 99.593750 256.031250 104.015625 L 256.031250 128.015625 C 256.031250 132.441406 252.457031 136.015625 248.031250 136.015625 Z" class="MsftOfcThm_Background1_Fill" stroke="none" stroke-width="1.000000" stroke-linecap="butt" fill="#FFFFFF" fill-opacity="1.000000"/><path d=" M 106.863281 146.566406 C 102.441406 146.566406 98.824219 142.992188 98.824219 138.566406 C 98.824219 134.144531 102.359375 130.566406 106.777344 130.566406 L 106.863281 130.566406 C 111.281250 130.566406 114.863281 134.144531 114.863281 138.566406 C 114.863281 142.992188 111.281250 146.566406 106.863281 146.566406 Z" class="MsftOfcThm_Background1_Fill" stroke="none" stroke-width="1.000000" stroke-linecap="butt" fill="#FFFFFF" fill-opacity="1.000000"/><path d=" M 106.609375 170.593750 C 91.640625 170.593750 77.574219 164.761719 67.000000 154.175781 C 56.433594 143.601562 50.601562 129.527344 50.609375 114.574219 C 50.609375 83.703125 75.726562 58.574219 106.601562 58.574219 C 137.472656 58.574219 162.593750 83.703125 162.593750 114.574219 C 162.601562 145.441406 137.488281 170.566406 106.609375 170.593750 Z M 106.601562 74.574219 C 84.542969 74.574219 66.609375 92.519531 66.609375 114.574219 C 66.609375 125.265625 70.769531 135.312500 78.320312 142.871094 C 85.863281 150.425781 95.910156 154.593750 106.593750 154.593750 C 128.656250 154.574219 146.601562 136.625000 146.593750 114.574219 C 146.593750 92.519531 128.656250 74.574219 106.601562 74.574219 Z" class="MsftOfcThm_Background1_Fill" stroke="none" stroke-width="1.000000" stroke-linecap="butt" fill="#FFFFFF" fill-opacity="1.000000"/><path d=" M 106.601562 122.585938 C 102.175781 122.585938 98.601562 119.007812 98.601562 114.585938 L 98.601562 90.574219 C 98.601562 86.152344 102.175781 82.574219 106.601562 82.574219 C 111.023438 82.574219 114.601562 86.152344 114.601562 90.574219 L 114.601562 114.585938 C 114.601562 119.007812 111.023438 122.585938 106.601562 122.585938 Z" class="MsftOfcThm_Background1_Fill" stroke="none" stroke-width="1.000000" stroke-linecap="butt" fill="#FFFFFF" fill-opacity="1.000000"/><path d=" M 157.519531 173.503906 C 155.472656 173.503906 153.425781 172.718750 151.863281 171.160156 L 134.894531 154.191406 C 131.769531 151.062500 131.769531 146.007812 134.894531 142.878906 C 138.023438 139.753906 143.078125 139.753906 146.207031 142.878906 L 163.175781 159.847656 C 166.304688 162.976562 166.304688 168.031250 163.175781 171.160156 C 161.609375 172.718750 159.558594 173.503906 157.519531 173.503906 Z" class="MsftOfcThm_Background1_Fill" stroke="none" stroke-width="1.000000" stroke-linecap="butt" fill="#FFFFFF" fill-opacity="1.000000"/></svg>