<svg version="1.1" viewBox="0.000000 0.000000 512.000000 512.000000" xmlns="http://www.w3.org/2000/svg" xmlns:xlink="http://www.w3.org/1999/xlink" id="Layer_1" overflow="hidden"><style>
.MsftOfcThm_Background1_Fill {
 fill:#FFFFFF; 
}
</style>
<g><g><g><path d=" M 65.192001 272.872009 C 61.213001 268.529999 54.465000 268.230988 50.120998 272.213013 C 48.888000 273.342987 47.612000 274.483002 46.296001 275.640015 C 41.870998 279.528015 41.433998 286.266998 45.320999 290.692993 C 47.431999 293.093994 50.376999 294.321014 53.340000 294.321014 C 55.840000 294.321014 58.349998 293.446991 60.375999 291.667999 C 61.806999 290.411011 63.193001 289.170013 64.531998 287.941986 C 68.875999 283.963013 69.171997 277.214996 65.192001 272.872009 Z" class="MsftOfcThm_Background1_Fill" stroke="none" stroke-width="1.000000" stroke-linecap="butt" fill="#FFFFFF" fill-opacity="1.000000"/><path d=" M 72.338997 265.416992 C 74.195000 266.709015 76.318001 267.329987 78.421997 267.329987 C 81.794998 267.329987 85.113998 265.733002 87.186996 262.755005 C 104.750000 237.516998 107.392998 212.574997 110.891998 167.029999 C 111.344002 161.156006 106.948997 156.028000 101.072998 155.576996 C 95.181999 155.126007 90.071999 159.522995 89.621002 165.395996 C 86.324997 208.298004 84.101997 229.841003 69.678001 250.570007 C 66.308998 255.404007 67.502998 262.053009 72.338997 265.416992 Z" class="MsftOfcThm_Background1_Fill" stroke="none" stroke-width="1.000000" stroke-linecap="butt" fill="#FFFFFF" fill-opacity="1.000000"/><path d=" M 398.335999 147.832001 C 399.404999 152.843994 403.830994 156.278000 408.757996 156.278000 C 409.493011 156.278000 410.242004 156.201004 410.992004 156.041000 C 416.752014 154.813004 420.429993 149.147003 419.200012 143.386002 C 418.760986 141.322006 418.274994 139.244003 417.757996 137.209000 C 416.306000 131.500000 410.498993 128.046997 404.791992 129.498993 C 399.083008 130.951004 395.631012 136.755997 397.083008 142.464996 C 397.532013 144.233002 397.954010 146.039001 398.335999 147.832001 Z" class="MsftOfcThm_Background1_Fill" stroke="none" stroke-width="1.000000" stroke-linecap="butt" fill="#FFFFFF" fill-opacity="1.000000"/><path d=" M 465.484009 275.453003 C 434.260010 249.483994 427.401001 224.184006 423.050995 173.684998 C 422.544006 167.815002 417.372009 163.464005 411.507996 163.973999 C 405.639008 164.479996 401.290985 169.647995 401.796997 175.516006 C 406.494995 230.046997 415.179993 261.364990 451.842987 291.855011 C 453.837006 293.513000 456.253998 294.321014 458.657990 294.321014 C 461.717987 294.321014 464.756012 293.010986 466.865997 290.475006 C 470.631989 285.945007 470.013000 279.220001 465.484009 275.453003 Z" class="MsftOfcThm_Background1_Fill" stroke="none" stroke-width="1.000000" stroke-linecap="butt" fill="#FFFFFF" fill-opacity="1.000000"/><path d=" M 441.903992 314.239014 C 441.761993 313.954987 441.609009 313.679993 441.441010 313.411011 C 438.862000 308.809998 435.574005 305.296997 431.618011 303.015015 C 402.830994 286.402008 385.410004 241.199005 379.837006 168.662994 C 375.704010 114.862999 337.342987 70.767998 287.431000 57.476002 C 291.169006 51.662998 293.346008 44.756001 293.346008 37.347000 C 293.346985 16.754000 276.592010 0.000000 255.998001 0.000000 C 235.406006 0.000000 218.651993 16.754000 218.651993 37.348000 C 218.651993 44.757000 220.830994 51.662998 224.567001 57.477001 C 174.654999 70.767998 136.294006 114.863998 132.158997 168.664001 C 126.585999 241.199997 109.165001 286.402008 80.379997 303.015991 C 72.042999 307.826996 66.625000 318.042999 64.714996 332.563995 C 63.476002 341.989990 63.094002 361.781006 70.531998 369.213013 C 72.531998 371.212006 75.245003 372.334991 78.070999 372.334991 L 191.893997 372.334991 C 196.998001 403.115997 223.794006 426.666992 256.001007 426.666992 C 288.207001 426.666992 315.002014 403.115997 320.108002 372.334991 L 433.928986 372.334991 C 436.756012 372.334991 439.467987 371.212006 441.467987 369.213013 C 448.907990 361.776001 448.523987 341.979004 447.282013 332.549988 C 446.329987 325.338013 444.513000 319.191010 441.903992 314.239014 Z M 255.998001 21.333000 C 264.829010 21.333000 272.013000 28.517000 272.013000 37.348000 C 272.013000 46.178001 264.829987 53.362000 255.998001 53.362000 C 247.169006 53.362000 239.985001 46.178001 239.985001 37.348000 C 239.985992 28.517000 247.169998 21.333000 255.998001 21.333000 Z M 255.998001 405.333008 C 235.600006 405.333008 218.429001 391.272003 213.656998 372.334991 L 298.338013 372.334991 C 293.566986 391.272003 276.395996 405.333008 255.998001 405.333008 Z M 426.234009 351.002014 L 85.763000 351.002014 C 85.320999 347.515015 85.087997 342.459991 85.695999 336.766998 C 86.717003 327.234985 89.452003 322.411011 91.042000 321.492004 C 126.790001 300.860992 147.197998 251.404999 153.429001 170.298004 C 157.546997 116.689003 202.602005 74.695000 255.996994 74.695000 C 309.393005 74.695000 354.446991 116.690002 358.565002 170.298004 C 361.562988 209.317001 367.850006 240.988998 377.540009 265.671997 L 337.440002 265.671997 C 331.550995 265.671997 326.773010 270.446991 326.773010 276.338989 C 326.773010 282.230988 331.550995 287.006012 337.440002 287.006012 L 387.763000 287.006012 C 392.584991 295.255005 397.984009 302.355988 403.959991 308.338989 L 297.596008 308.338989 C 291.707001 308.338989 286.928986 313.114014 286.928986 319.006012 C 286.928986 324.897003 291.707001 329.673004 297.596008 329.673004 L 425.049988 329.673004 C 425.562012 331.661011 426.002991 334.010986 426.298004 336.765991 C 426.908997 342.459015 426.674988 347.514008 426.234009 351.002014 Z" class="MsftOfcThm_Background1_Fill" stroke="none" stroke-width="1.000000" stroke-linecap="butt" fill="#FFFFFF" fill-opacity="1.000000"/><path d=" M 362.662994 490.666992 L 149.330002 490.662994 C 143.440994 490.662994 138.662994 495.437988 138.662994 501.329987 C 138.662994 507.220001 143.438004 511.997009 149.330002 511.997009 L 362.662994 512.000000 C 368.553986 512.000000 373.329987 507.225006 373.329987 501.333008 C 373.329987 495.441010 368.554993 490.666992 362.662994 490.666992 Z" class="MsftOfcThm_Background1_Fill" stroke="none" stroke-width="1.000000" stroke-linecap="butt" fill="#FFFFFF" fill-opacity="1.000000"/><path d=" M 259.197998 308.338989 L 252.798004 308.338989 C 246.906998 308.338989 242.130997 313.114014 242.130997 319.006012 C 242.130997 324.897003 246.906006 329.673004 252.798004 329.673004 L 259.197998 329.673004 C 265.087006 329.673004 269.864990 324.898010 269.864990 319.006012 C 269.864990 313.114014 265.088013 308.338989 259.197998 308.338989 Z" class="MsftOfcThm_Background1_Fill" stroke="none" stroke-width="1.000000" stroke-linecap="butt" fill="#FFFFFF" fill-opacity="1.000000"/></g></g></g><g></g><g></g><g></g><g></g><g></g><g></g><g></g><g></g><g></g><g></g><g></g><g></g><g></g><g></g><g></g></svg>